<?xml version="1.0" encoding="utf-8"?>
<!-- Generator: Adobe Illustrator 24.1.0, SVG Export Plug-In . SVG Version: 6.00 Build 0)  -->
<svg version="1.1" id="Capa_1" xmlns="http://www.w3.org/2000/svg" xmlns:xlink="http://www.w3.org/1999/xlink" x="0px" y="0px"
	 viewBox="0 0 1357 584" style="enable-background:new 0 0 1357 584;" xml:space="preserve">
<style type="text/css">
	.st0{fill:#3D3F57;}
	.st1{fill:#0E668F;}
	.st2{fill:#004D77;}
	.st3{fill:#575763;}
	.st4{fill:#1479A1;}
	.st5{fill:#299CC5;}
	.st6{fill:#C0E4E1;}
	.st7{fill:#3EC8F2;}
</style>
<path class="st0" d="M1357,373h-70v-95h-140.2c-7.8,0-7.8,0-7.8-8c0-14.5,0.2-29-0.1-43.5c-0.1-4.5,1.4-5.6,5.7-5.5
	c45.5,0.1,90.9,0.1,136.4,0.1h5.8v-5.9c0-30,0.1-60-0.1-90c0-4.7,1.1-6.3,6.1-6.3c19.5,0.3,39,0.1,58.5,0.2c1.9,0.2,3.8,0.5,5.7,1
	V373z"/>
<path class="st1" d="M160.9,102.1l-144.2-0.1L0.2,102V53c83.6,0,167.2,0,250.8,0c1.8-0.2,3.5-0.5,5.2-1h1.5c0,16.7,0,33.3,0,50
	L160.9,102.1z"/>
<path class="st2" d="M257.7,52h-1.5H0.2V4l1-0.8c7.7,0,15.3-0.1,23-0.1h233.5V52z"/>
<path class="st3" d="M1357,583c-9.7,2-14.9-2.5-19.8-10.7c-13.1-21.9-27.3-43.1-41.1-64.5c-0.1-0.1-0.2-0.1-0.9-0.5v75.5h-13.1v-4.7
	c0-29.8,0.1-59.6-0.1-89.4c0-4.2,0.9-5.6,5.4-5.8c6-0.3,9.5,1.7,12.7,6.8c13.9,22.4,28.3,44.4,42.5,66.6c0.5,0.8,1.1,1.5,2.3,3.3
	V483h12.2V583z"/>
<path class="st3" d="M831.1,584c-13.7-4.9-24.4-13.3-29.4-27.2c-7.6-20.8-6.5-41.1,7.1-59.3c7.6-10.2,18.5-14.8,31.3-15.6
	c29.9-1.8,45.9,20.9,48.2,42.4c1.8,16.9-0.8,32.3-11.4,45.8c-5.6,7.2-13.7,10.4-21.8,13.8L831.1,584z M875.7,533.7
	c-0.9-5.5-1.3-11.2-2.8-16.5c-3.5-12.4-11.5-20.9-24.5-23c-13.7-2.2-26.8,3.7-32.1,15c-7.3,15.5-8.2,31.8-0.4,47.4
	c9.8,19.8,35.8,22.6,50.3,6C873.4,554.3,875.2,544.3,875.7,533.7z"/>
<path class="st3" d="M1209,584c-2.2-1-4.3-2-6.5-3c-17-8.1-24.7-22.3-26.4-40.3c-1-9.4-0.1-18.9,2.6-28
	c5.9-18.5,23.1-31.1,42.5-31.1c22.8,0,41.3,16.1,44.8,39.4c2.6,16.9,0.8,32.9-9.5,47.3c-5.9,8.2-14.5,12.2-23.6,15.6L1209,584z
	 M1253.9,533.7c-1-5.8-1.4-11.8-3-17.5c-3.5-12.2-14-23.3-31.8-22.3c-13.1,0.8-24.2,9.9-27.5,22.6c-3,10.8-3.6,21.9-0.4,32.8
	c3.7,12.8,12,21.6,25.4,23.5c12.8,1.9,23.6-2.6,30.7-13.9C1252.1,551.3,1253.5,542.7,1253.9,533.7L1253.9,533.7z"/>
<path class="st2" d="M323.2,0c0.1,16.1,0.2,32.2,0.4,48.4c-0.1,0.6-0.3,1.3-0.5,1.9l0.1-0.1h-53.7V1.7L283.2,0H323.2z"/>
<path class="st4" d="M0.2,52h256c-1.7,0.5-3.4,0.8-5.2,1c-83.6,0.1-167.2,0.1-250.8,0L0.2,52z"/>
<path class="st4" d="M1.2,3.3L0.2,4V3C0.6,3,0.9,3.1,1.2,3.3z"/>
<path class="st0" d="M450.3,176v140h233.8v25.4c0,8.8-0.1,17.7,0,26.5c0,3-1.1,4.3-4.1,4.1c-1-0.1-2,0-3,0H387.6
	c-7.5,0-7.5,0-7.5-7.6c0-79.2,0-158.3,0-237.5c0-6.9,0-6.9,7-6.9h290.4c6.5,0,6.5,0,6.5,6.6c0,14.7-0.2,29.3,0.1,44
	c0.1,4.5-1.2,5.5-5.6,5.5c-74-0.1-148-0.2-221.9-0.1L450.3,176z"/>
<path class="st0" d="M781.3,175v145h228.3c6.6,0,7.7,0.9,6.5,7c-3.5,17.7-15.1,39.2-38.4,43.3c-4.4,0.9-8.8,1.4-13.2,1.5
	c-67.3,0.1-134.6,0.3-202,0c-26.4-0.1-41.4-11.7-49.8-38.7c-1.8-5.9-2.1-12.4-2.2-18.6c-0.2-46.5-0.2-93-0.1-139.5
	c0-18.4,5.5-34.3,20.4-46.2c7.7-6.2,16.6-9.7,26.2-9.7c84.6-0.2,169.3-0.1,253.9-0.2c4.2,0,5.4,1.3,5.3,5.4c-0.2,15-0.3,30,0,45
	c0.1,4.8-1.4,5.8-6,5.8c-74.3-0.1-148.7-0.2-223-0.1L781.3,175z"/>
<path class="st0" d="M1118.8,372.8H1049c-0.1-1.8-0.3-3.6-0.3-5.4c0-80.8,0-161.6-0.1-242.4c0-4.9,1.5-6.2,6.3-6.1
	c19.7,0.3,39.3,0.2,59,0c3.8,0,5.3,0.9,5.3,5c-0.1,81.8-0.1,163.6-0.1,245.4C1119,370.3,1118.9,371.3,1118.8,372.8z"/>
<path class="st0" d="M568.1,277c-30.8,0-61.6-0.1-92.4,0.1c-4.4,0-5.7-1.3-5.6-5.7c0.3-15.2,0.3-30.3,0-45.5c-0.1-4,1.2-5.1,5.1-5.1
	c62,0.1,123.9,0.1,185.9,0c3.9,0,5.2,1.1,5.2,5.1c-0.2,15.3-0.2,30.7,0,46c0,4-1.3,5.1-5.2,5.1C630,277,599.1,277,568.1,277z"/>
<path class="st5" d="M257.7,195c0.1,14.1,0.3,28.2,0.3,42.3c0,17.2-0.1,34.5-0.2,51.7l-96.5,0c0-15.3,0-30.6,0-46H255v-0.9h-93.8
	c0-15.4,0-30.8,0-46.2c30.2,0,60.5,0,90.7,0c1.4-0.2,2.8-0.5,4.2-0.9L257.7,195z"/>
<path class="st4" d="M257.7,195l-1.5,0.1l-94.9,0.1c0-15.3,0-30.7,0-46.1H255v-1h-93.8c-0.1-15.3-0.2-30.6-0.3-45.9l96.9-0.1
	L257.7,195z"/>
<path class="st6" d="M258,334.9c0,14.3,0,28.6,0.2,42.9c0,3.2-0.9,4.3-4.2,4.3c-29.4-0.1-58.9-0.1-88.4,0c-3.5,0-4.6-1.1-4.5-4.6
	c0.2-14.1,0.1-28.3,0.1-42.4c17.3,0,34.6,0,51.9,0C228.1,335.1,243,335,258,334.9z"/>
<path class="st7" d="M258,334.9c-15,0.1-29.9,0.2-44.9,0.3c-17.3,0-34.6,0-51.9,0c0-15.4,0.1-30.8,0.1-46.2l96.5,0L258,334.9z"/>
<path class="st3" d="M622.3,582.8h-13v-99.7c4.1,0,8.1-0.4,11.9,0.2c1.5,0.2,2.9,2.4,3.9,3.9c14.9,23.1,29.8,46.2,44.6,69.4
	c0.4,0.7,0.9,1.3,2.2,3.1v-76.3h12.8V583c-3.8,0-7.7,0.3-11.4-0.2c-1.5-0.2-3.3-1.9-4.2-3.4c-14.7-22.7-29.3-45.4-43.8-68.2
	c-0.8-1.2-1.6-2.5-3-4.7L622.3,582.8z"/>
<path class="st3" d="M705.4,483.5c0.9-0.2,1.2-0.3,1.5-0.3c8.1-1.5,13,1.5,17.5,8.9c13,21.6,27,42.5,40.6,63.7
	c0.8,1.2,1.6,2.4,3,4.7v-76.4c0.8-0.4,1-0.7,1.3-0.7c11.7-0.7,11.7-0.7,11.7,11.1V583c-4.3,0-8.4,0.3-12.4-0.2
	c-1.4-0.2-2.8-2-3.7-3.4c-14.6-22.5-29.1-45.1-43.6-67.7c-0.8-1.3-1.7-2.6-3.2-4.9v75.8h-12.7V483.5z"/>
<path class="st3" d="M986.6,582.8h-14.1c3.9-10.6,7.7-20.7,11.4-30.9c7.8-21.3,15.6-42.7,23.3-64.1c1.3-3.7,3.2-5.4,7.2-4.8
	c2,0.3,4.1-0.3,6,0.2c1.4,0.4,3.3,1.5,3.8,2.8c12.5,31.7,24.9,63.5,37.2,95.3c0.1,0.5,0.3,0.9,0.3,1.4c-0.3,0.1-0.7,0.2-1,0.3
	c-13.5,0.3-13.5,0.3-18.1-12.2l-3.1-8.3c-3.5-9.4-3.5-9.4-13.7-9.4c-8.2,0-16.3,0.2-24.5-0.1c-3.7-0.2-5.2,1.2-6.3,4.5
	C992.5,565.9,989.5,574.3,986.6,582.8z M1000.9,541.8h31c-5.3-14.9-10.5-29.8-15.8-44.7L1000.9,541.8z"/>
<path class="st1" d="M323,50.3l54.8-1.5v50.4h-54c0-7.1,0.1-14.9,0-22.6c-0.1-8.8-0.4-17.6-0.6-26.3L323,50.3z"/>
<path class="st3" d="M894.8,483.7c0.3-0.2,0.7-0.3,1-0.4c12.3-0.9,12.4-1,16.4,10.8c8.3,24.4,16.6,48.9,24.9,73.3
	c0.3,0.7,0.7,1.3,1.2,1.9c9.4-26.6,18.9-52.8,27.9-79.2c1.8-5.3,4.2-8.2,10.1-7c1.7,0.3,3.6,0,6.1,0c-3.4,9.2-6.5,17.8-9.8,26.4
	c-8.5,22.8-17.2,45.6-25.6,68.5c-1.4,3.9-3.2,5.3-7.4,5.1c-8.5-0.4-8.5-0.1-11.4-7.9c-6.3-17.1-12.7-34.3-19-51.4
	c-4.5-12.2-9-24.4-13.4-36.6C895.4,486.1,895.2,485,894.8,483.7z"/>
<path class="st3" d="M1086,496h-31c-0.4-0.8-0.7-1.1-0.7-1.4c-0.8-11.5-0.8-11.5,10.7-11.5h64.7v12.6h-30.5v87H1086V496z"/>
<path class="st3" d="M587.7,582.8h-12.3v-99.5h12.3L587.7,582.8z"/>
<path class="st3" d="M1145.2,483.2h12.4v99.5h-12.4V483.2z"/>
<path class="st5" d="M161.2,148.1H255v1h-93.7L161.2,148.1z"/>
<path class="st7" d="M161.3,195.1l94.9-0.1c-1.4,0.4-2.8,0.7-4.2,0.9c-30.2,0-60.5,0-90.7,0C161.1,195.7,161.1,195.4,161.3,195.1z"
	/>
<path class="st7" d="M161.2,242.1H255v0.9h-93.8C161.1,242.7,161.1,242.4,161.2,242.1z"/>
</svg>
